<svg viewBox="0 0 500 500" xmlns="http://www.w3.org/2000/svg"><defs/><g><path d="M205.1492,102.7765 C222.1056,92.3484 239.3274,112.8586 233.1536,139.1421 C227.0694,165.0439 189.3293,180.228 149.7433,198.1775 C122.2031,210.665 94.2707,222.004 66.2848,233.4961 C101.4183,252.8748 134.9163,274.795 172.0866,290.3684 C205.2151,304.2483 237.1405,315.5205 244.7262,336.417 C253.1832,359.7137 238.4774,380.2798 222.2082,371.6453 L20.8345,264.7712 C12.596,257.6832 8.1382,248.4396 8.7619,238.4325 C9.3637,228.7763 14.5893,220.4112 23.2527,214.6422 L205.1492,102.7765 Z" fill="rgb(255,255,255)" opacity="1"/><path d="M54.7051,212.0057 L474.7708,212.0057 C485.1606,212.0057 491.3762,222.8205 491.204,236.1985 C491.0374,249.1374 484.9143,259.5856 474.7708,259.5856 L54.7051,259.5856 L54.7051,212.0057 Z" fill="rgb(255,255,255)" opacity="1"/></g></svg>