<svg viewBox="0 0 500 500" xmlns="http://www.w3.org/2000/svg"><defs/><g><path d="M453.5586,213.9845 L453.8704,214.3033 L453.5586,214.3039 L453.5586,214.3039 L453.5586,214.3039 C453.5586,250.4946 453.5586,286.6853 453.5586,322.876 C453.5586,350.6318 453.5586,378.3876 453.5586,406.1433 C453.5586,429.8766 453.5586,453.6097 453.5586,477.3429 L303.732,475.1711 L304.4132,380.8147 C304.5322,364.3297 300.6798,349.0563 291.6683,337.2724 C283.6811,326.8278 272.2954,319.654 260.1458,319.0477 C246.003,318.3419 232.2742,326.4489 222.5815,338.8135 C211.4556,353.0062 206.9444,371.7976 206.9517,392.216 L206.9811,474.7678 L59.2154,477.3429 L59.2154,215.1188 L59.2154,215.1188 L59.2154,215.1188 C62.3969,209.644 66.1889,204.6277 70.115,199.4871 C113.9978,142.0284 186.0121,77.5037 254.8767,14.4127 C256.8002,12.9076 259.0157,12.1254 261.2646,12.2936 C263.2261,12.4402 265.0589,13.3034 266.4965,14.8136 C332.3015,77.8434 401.1599,142.1274 443.6972,199.4908 C447.2339,204.2603 450.6683,208.9246 453.5586,213.9845 Z" fill="transparent" stroke="white" stroke-width="25" opacity="1"/></g></svg>